<svg width="20" height="19" viewBox="0 0 20 19" fill="none" xmlns="http://www.w3.org/2000/svg">
<path opacity="0.9" d="M3.69231 18.5V15.4231H0.923077C0.678262 15.4231 0.443474 15.3258 0.270363 15.1527C0.0972525 14.9796 0 14.7448 0 14.5V3.42308C0 3.17826 0.0972525 2.94347 0.270363 2.77036C0.443474 2.59725 0.678262 2.5 0.923077 2.5H16.3077C16.5525 2.5 16.7873 2.59725 16.9604 2.77036C17.1335 2.94347 17.2308 3.17826 17.2308 3.42308V14.5C17.2308 14.7448 17.1335 14.9796 16.9604 15.1527C16.7873 15.3258 16.5525 15.4231 16.3077 15.4231H8.22077L3.69231 18.5Z" fill="#25AAE1"/>
<path opacity="0.9" d="M5.69231 16V12.9231H2.92308C2.67826 12.9231 2.44347 12.8258 2.27036 12.6527C2.09725 12.4796 2 12.2448 2 12V0.923077C2 0.678262 2.09725 0.443474 2.27036 0.270363C2.44347 0.0972525 2.67826 0 2.92308 0H18.3077C18.5525 0 18.7873 0.0972525 18.9604 0.270363C19.1335 0.443474 19.2308 0.678262 19.2308 0.923077V12C19.2308 12.2448 19.1335 12.4796 18.9604 12.6527C18.7873 12.8258 18.5525 12.9231 18.3077 12.9231H10.2208L5.69231 16Z" fill="#F7941D"/>
</svg>
